<svg xmlns="http://www.w3.org/2000/svg" xmlns:xlink="http://www.w3.org/1999/xlink" viewBox="0 0 18.02 23.42"><defs><style>.cls-1{fill:#201822;}.cls-2{fill:#00eedf;}.cls-3{fill:#aaf9ff;}.cls-4{fill:url(#radial-gradient);}.cls-5{fill:#ff5122;}.cls-6{fill:#231f20;}</style><radialGradient id="radial-gradient" cx="5937.81" cy="1139.21" r="2.74" gradientTransform="translate(5946.9 1150.89) rotate(180)" gradientUnits="userSpaceOnUse"><stop offset="0" stop-color="#201822"/><stop offset="0.28" stop-color="#201a24"/><stop offset="0.42" stop-color="#1e222b"/><stop offset="0.54" stop-color="#1c2f37"/><stop offset="0.63" stop-color="#1a4348"/><stop offset="0.72" stop-color="#165b5d"/><stop offset="0.8" stop-color="#117a78"/><stop offset="0.88" stop-color="#0c9e98"/><stop offset="0.94" stop-color="#06c6bc"/><stop offset="1" stop-color="#00eedf"/></radialGradient></defs><title>pluginAsset 1</title><g id="Layer_2" data-name="Layer 2"><g id="Layer_1-2" data-name="Layer 1"><path class="cls-1" d="M16,12.06a1.19,1.19,0,0,1-.16-.23.35.35,0,0,1,0-.12h0a.27.27,0,0,1,0-.12.94.94,0,0,1,.16-.23,8.08,8.08,0,0,0,2-4.87,5.15,5.15,0,0,0,0-.55,1.38,1.38,0,0,0-.26-.79,1.45,1.45,0,0,0-.7-.43c-1.33-.45-2.76-.17-4.12-.49a3.3,3.3,0,0,1-1.37-.63,4.08,4.08,0,0,1-1-1.42c-.21-.43-.38-.87-.59-1.3S9.55.12,9.16,0L9,0,8.86,0c-.4.1-.59.53-.76.86s-.39.87-.59,1.3a4.08,4.08,0,0,1-1,1.42,3.3,3.3,0,0,1-1.37.63c-1.36.32-2.79,0-4.12.49a1.45,1.45,0,0,0-.7.43A1.38,1.38,0,0,0,0,5.94a5.15,5.15,0,0,0,0,.55,8.08,8.08,0,0,0,2,4.87.94.94,0,0,1,.16.23.27.27,0,0,1,0,.12h0a.35.35,0,0,1,0,.12,1.19,1.19,0,0,1-.16.23,8.08,8.08,0,0,0-2,4.86,5,5,0,0,0,0,.55,1.41,1.41,0,0,0,.26.8,1.45,1.45,0,0,0,.7.43c1.33.44,2.76.17,4.12.48a3.43,3.43,0,0,1,1.37.63,4.18,4.18,0,0,1,1,1.42c.2.43.38.88.59,1.3s.36.76.76.87l.15,0,.15,0c.39-.11.59-.53.76-.87s.38-.87.59-1.3a4.18,4.18,0,0,1,1-1.42,3.43,3.43,0,0,1,1.37-.63c1.36-.31,2.79,0,4.12-.48a1.45,1.45,0,0,0,.7-.43,1.41,1.41,0,0,0,.26-.8,5,5,0,0,0,0-.55A8.08,8.08,0,0,0,16,12.06Z"/><path class="cls-2" d="M16.63,14.79a10.22,10.22,0,0,0-2.12-3.23A11.19,11.19,0,0,0,16.45,8a2.24,2.24,0,0,0,0-1.65,2,2,0,0,0-.89-.79,6.44,6.44,0,0,0-4.93.13,5.28,5.28,0,0,1-1.74.46,7.52,7.52,0,0,1-2.49-.73A6.53,6.53,0,0,0,3.3,5.17a2.71,2.71,0,0,0-1.75.88,2.73,2.73,0,0,0-.16,2.58,10.34,10.34,0,0,0,2.12,3.23,11.08,11.08,0,0,0-1.94,3.55,2.24,2.24,0,0,0,0,1.65,2,2,0,0,0,.89.78,6.39,6.39,0,0,0,4.93-.13,5.26,5.26,0,0,1,1.74-.45,7.57,7.57,0,0,1,2.49.72,6.28,6.28,0,0,0,3.07.26,2.75,2.75,0,0,0,1.75-.87A2.73,2.73,0,0,0,16.63,14.79Z"/><circle class="cls-1" cx="9.01" cy="11.71" r="2.97"/><circle class="cls-3" cx="9.01" cy="11.71" r="2.37"/><circle class="cls-4" cx="9.01" cy="11.71" r="2.03"/><circle class="cls-5" cx="9.01" cy="11.71" r="1.08"/><path class="cls-6" d="M6.69,8.35c-.23.3-.46.6-.66.92s-.21.37-.33.54a1.22,1.22,0,0,1-.49.41,1,1,0,0,1-1-.29,3,3,0,0,1-.93-1.45,1.19,1.19,0,0,1,0-.62,1.07,1.07,0,0,1,.63-.65L4,7.15A3.38,3.38,0,0,1,5.61,7a3.06,3.06,0,0,1,.79.2,2.3,2.3,0,0,1,.32.15A.61.61,0,0,1,7,7.55a.58.58,0,0,1,0,.43A2.12,2.12,0,0,1,6.69,8.35Z"/><path class="cls-5" d="M6,8.46A4.87,4.87,0,0,0,5.62,9a2.49,2.49,0,0,1-.19.3.67.67,0,0,1-.27.23.55.55,0,0,1-.56-.17,1.56,1.56,0,0,1-.52-.81.66.66,0,0,1,0-.34.58.58,0,0,1,.35-.37l.08,0a1.73,1.73,0,0,1,.9-.11,1.36,1.36,0,0,1,.44.11L6,7.87A.32.32,0,0,1,6.13,8a.29.29,0,0,1,0,.24A1.53,1.53,0,0,1,6,8.46Z"/><path class="cls-6" d="M11.08,8.24a9.69,9.69,0,0,1,.66.92,4.93,4.93,0,0,0,.34.54,1.14,1.14,0,0,0,.49.41,1,1,0,0,0,1-.29,2.92,2.92,0,0,0,.93-1.45,1.15,1.15,0,0,0,0-.61,1.09,1.09,0,0,0-.62-.66L13.76,7a3.35,3.35,0,0,0-1.6-.2,3.09,3.09,0,0,0-.78.2,2.39,2.39,0,0,0-.32.16.48.48,0,0,0-.21.67A1.62,1.62,0,0,0,11.08,8.24Z"/><path class="cls-5" d="M11.78,8.35a6.15,6.15,0,0,1,.37.52c.07.1.12.21.19.3a.67.67,0,0,0,.27.23.57.57,0,0,0,.57-.17,1.7,1.7,0,0,0,.52-.81.66.66,0,0,0,0-.34.61.61,0,0,0-.35-.37l-.08,0a1.85,1.85,0,0,0-.9-.11,1.36,1.36,0,0,0-.44.11l-.18.08a.35.35,0,0,0-.13.14.33.33,0,0,0,0,.24A.92.92,0,0,0,11.78,8.35Z"/><path class="cls-6" d="M6.69,15.18A10.37,10.37,0,0,1,6,14.25c-.11-.18-.21-.37-.33-.54a1.19,1.19,0,0,0-.49-.4,1,1,0,0,0-1,.29A2.89,2.89,0,0,0,3.28,15a1.19,1.19,0,0,0,0,.62,1.07,1.07,0,0,0,.63.65l.14.07a3.37,3.37,0,0,0,1.6.19,2.7,2.7,0,0,0,.79-.2,2.3,2.3,0,0,0,.32-.15.49.49,0,0,0,.21-.67A1.57,1.57,0,0,0,6.69,15.18Z"/><path class="cls-5" d="M6,15.07a6.15,6.15,0,0,1-.37-.52,2.59,2.59,0,0,0-.19-.31A.64.64,0,0,0,5.16,14a.54.54,0,0,0-.56.16,1.6,1.6,0,0,0-.52.81.69.69,0,0,0,0,.35.57.57,0,0,0,.35.36l.08,0a1.84,1.84,0,0,0,.9.11,1.67,1.67,0,0,0,.44-.11L6,15.65a.28.28,0,0,0,.12-.14.29.29,0,0,0,0-.24A1.43,1.43,0,0,0,6,15.07Z"/><path class="cls-6" d="M11.23,15.07a10.37,10.37,0,0,0,.66-.93c.11-.18.21-.37.33-.54a1.19,1.19,0,0,1,.49-.4,1,1,0,0,1,1,.29,2.83,2.83,0,0,1,.93,1.44,1.19,1.19,0,0,1,0,.62,1,1,0,0,1-.63.65.61.61,0,0,1-.14.07,3.37,3.37,0,0,1-1.6.19,2.7,2.7,0,0,1-.79-.2,2.3,2.3,0,0,1-.32-.15.49.49,0,0,1-.21-.67A1.57,1.57,0,0,1,11.23,15.07Z"/><path class="cls-5" d="M11.93,15a6.15,6.15,0,0,0,.37-.52,3,3,0,0,1,.19-.3.6.6,0,0,1,.27-.23.54.54,0,0,1,.56.16,1.6,1.6,0,0,1,.52.81.7.7,0,0,1,0,.35.57.57,0,0,1-.35.36l-.08,0a1.84,1.84,0,0,1-.9.11,1.67,1.67,0,0,1-.44-.11l-.18-.09a.28.28,0,0,1-.12-.14.29.29,0,0,1,0-.24A1.43,1.43,0,0,1,11.93,15Z"/></g></g></svg>